<svg xmlns="http://www.w3.org/2000/svg" viewBox="0 0 947.52 460.94">
    <defs>
        <style>
            .cls-1 {
                fill: #fff;
            }
            .cls-2 {
                fill: #d7fbff;
            }
        </style>
    </defs>
    <g id="Layer_2" data-name="Layer 2">
        <g id="Layer_1-2" data-name="Layer 1">
            <path
                class="cls-1"
                d="M946.89,253c-4-30.61-24.59-57.42-50.54-74.14s-56.82-24.34-87.52-27.64c-17.59-1.89-38.27-1.17-49,12.89,4.34-16.85-2.85-36.05-17.19-45.9s-34.84-9.68-49,.41C680.85,69.49,640.35,30.1,592.8,12.39s-101.06-15.31-149.42,0c-57.72,18.32-112.44,59-129,117.25-38.41-11.07-82.79,2.79-108.07,33.74-15.35,18.79-23.51,42.25-32,65S157.63,275.83,139,291.34C82.12,338.61,34.86,337.68,0,330.27c63.37,44.69,155.07,44.35,218.11-.81,0,34.43,24.65,67.42,57.67,77.19s71.64-4.5,90.38-33.38c1.25,27,20.32,51,44.11,64s51.66,16.27,78.73,16a331.39,331.39,0,0,0,83.23-11.36c20.48-5.51,43-15.53,49.21-35.81a189.55,189.55,0,0,0,267.67-1.24c19.75-19.88,35.07-52.18,18.51-74.8C935.7,317.21,950.89,283.6,946.89,253Z"
            />
            <path class="cls-2" d="M399.49,281.35a78.77,78.77,0,0,0,2.42-12.71A82.56,82.56,0,0,0,399.49,281.35Z" />
            <path
                class="cls-2"
                d="M900,181.45c5.65,17.24,3.1,37.21-10.41,48.9-4.38,3.79-9.63,6.54-13.69,10.68-5.92,6-8.74,14.4-13.56,21.34-7.36,10.61-20.28,17.74-33.1,16.21-12.42-1.49-23.6-12.24-24.07-24.64.64,35.56-31.3,67.39-66.82,70.64-35.93,3.28-71.46-19.55-87.9-51.65,13.78,43.25-14.7,95.14-58.59,106.75-18.17,4.8-40.9,1.5-50.23-14.81-29.84,21.89-73.6,22.55-104.07,1.56-26.92-18.53-41.74-52.76-38.08-85.08-10.43,37.7-47.93,67.17-87.38,66.3-15.81-.35-32-5.36-43.27-16.48s-16.42-28.95-10.15-43.46c-9.37,5.14-19.47,10.26-30.14,9.53s-21.48-9.76-20.08-20.36c-23.07,34.23-60.5,57-100.52,65.68-30.19,6.53-76,7.46-103.42-11.24-1.53-.29-3-.59-4.53-.91,63.37,44.69,155.07,44.35,218.11-.8,0,34.43,24.65,67.42,57.67,77.19s71.64-4.5,90.38-33.39c1.25,27,20.32,51,44.11,63.95s51.66,16.27,78.73,16.05a331.39,331.39,0,0,0,83.23-11.36c20.48-5.51,43-15.53,49.21-35.81A189.55,189.55,0,0,0,889.11,405c19.75-19.88,35.07-52.18,18.51-74.8,28.08-12.84,43.27-46.45,39.27-77.07C943.08,224,924.22,198.28,900,181.45Z"
            />
            <path class="cls-2" d="M805.18,253.94c0-.4,0-.81,0-1.21C805.16,253.13,805.16,253.54,805.18,253.94Z" />
            <path
                class="cls-2"
                d="M304.17,216.08c13-20.86,42.4-29.58,64.68-19.2-4.26-18.51,3.63-39.24,19.12-50.22s37.67-11.58,53.73-1.42,25,30.43,21.75,49.14c-5.4-17.29-26.46-27.82-43.53-21.76s-26.79,27.5-20.08,44.32c-18.84-11.37-45.58-9.64-60.77,6.29s-14.37,45.24,3.39,58.23c-17.24.84-31.59,1.42-40-15.22C294.67,250.79,294.94,230.87,304.17,216.08Z"
            />
            <path
                class="cls-2"
                d="M511.73,216.07c16.28-30.06,51-45.7,84.83-50.8,25.51-3.85,56.62-.09,68.89,22.61,17.31-11.45,41.46-11.45,58.78,0s26.77,33.66,23,54.07a47.51,47.51,0,0,0-78.94-4.89c-10.16-29.74-47.82-41.82-78.6-35.48-18.77,3.87-37.23,13.72-46.89,30.27s-7.9,40.33,7.11,52.24C538,274.6,519.88,279.9,510.3,267,500,253.14,504.18,230,511.73,216.07Z"
            />
            <path
                class="cls-2"
                d="M548.12,104.11a25.08,25.08,0,0,1,37,20.93,23.65,23.65,0,0,0-26.82-36.45c-7-14.75-22.59-24.73-38.87-25.93s-32.73,6-43.7,18.08c-7.93,8.73-14.24,22.87-8.38,34.17,6.62-15.43,18.06-29.7,34.93-33.38C518.64,77.94,547.94,82.18,548.12,104.11Z"
            />
        </g>
    </g>
</svg>
