<svg xmlns="http://www.w3.org/2000/svg" viewBox="0 0 1315.79 524.23">
    <defs>
        <style>
            .cls-1 {
                fill: #fff;
            }
            .cls-2 {
                fill: #d7fbff;
            }
            .cls-3 {
                fill: #e3f5ff;
            }
        </style>
    </defs>
    <g id="Layer_2" data-name="Layer 2">
        <g id="Layer_1-2" data-name="Layer 1">
            <path
                class="cls-1"
                d="M216,419.39a469.22,469.22,0,0,0,101.8,43.82c46.17,13.66,104.45,16.48,133.93-21.58a367.33,367.33,0,0,0,208,58c25.53-.73,51.59-4.34,74.17-16.28s41.27-33.39,44.61-58.71c8.11,8.18,17.11,16.81,28.53,18.24S831.59,434,828.18,423c5,50.15,57.63,81.33,106.65,93,40.59,9.71,83.65,11.77,123.88.67,39.14-10.8,79.3-43.39,73.48-83.58,49.93,30.47,121,11.45,155.92-35.47s35.46-114.17,9.12-166.4-76.09-90.07-130.66-111.14C1087.86,89.75,986.82,97.24,934,163c9.11-18,5.86-40.34-4.1-57.84s-25.8-30.88-42.23-42.52a372.65,372.65,0,0,0-106.44-52.2c-28.73-8.77-59.42-14-88.78-7.69-32.72,7.05-60.8,27.8-85.31,50.6-39.83,37.06-74.83,85.48-74.58,139.89,6.79-34.32-20.14-67.89-52.3-81.66-41.44-17.73-92.74-9.56-126.62,20.17S305,211.32,317.2,254.72c-27.89-26.48-80.39-17.95-98.45,16-6.74,12.66-9.17,27.67-18.22,38.81-8.35,10.28-21.17,15.75-33.73,20a283,283,0,0,1-95,14.47c-15.13-.3-30.66-1.77-45.06,2.88S-.79,364.38.1,379.49c33.64-15.73,70.11-7.75,105-5.72C146.81,376.19,180.82,399,216,419.39Z"
            />
            <path class="cls-2" d="M938.2,324.89a48.52,48.52,0,0,0,2.52-19.72A73.48,73.48,0,0,0,938.2,324.89Z" />
            <path
                class="cls-3"
                d="M26.7,347.07C12.3,351.72-.85,364.62,0,379.73,33.69,364,70.15,372,105.06,374c41.69,2.42,75.7,25.25,110.86,45.62q9.11,5.28,18.45,10.14c-15.91-17.64-24.12-42-17.6-64.68,9.44-32.8,54.33-51.73,81.24-30.75,40.7-40.12,120.76-23.44,142.05,29.59,6.66-40.72,42.69-74.78,83.73-79.14,20.87-2.22,42.09,3.37,59.89,14.44-7.22-22.52-7.33-49.16-2.79-72.5,9.22-47.31,32.24-94.45,73.05-120.1S755.22,83.94,785,121.81c19.6,24.89,22.85,60.05,13.7,90.38S769.39,268.46,746.18,290C782,265.34,821,239.66,864.45,240.66c36.48.84,73.65,30.65,76.27,64.51,8.13-30.49,35-56.09,66.53-60.42,38.18-5.24,78.16,21.32,88.11,58.55,37.48-55.41,127.74-63.86,174.85-16.37,24.61,24.81,33.13,59.51,29.08,93,23.41-45.1,21-102.54-2.12-148.4-26.33-52.23-76.09-90.08-130.66-111.15C1087.8,90,986.76,97.48,934,163.28c9.11-18,5.86-40.34-4.1-57.84s-25.8-30.88-42.23-42.51A372.68,372.68,0,0,0,781.18,10.72C752.45,2,721.76-3.3,692.4,3c-32.72,7.05-60.8,27.8-85.31,50.6C571,87.17,539,130,533.37,178.18c-2.29-28.61-25.83-54.62-53.16-66.31C438.77,94.13,387.47,102.3,353.59,132S304.94,211.57,317.14,255c-27.88-26.48-80.39-18-98.45,16-6.74,12.66-9.17,27.68-18.21,38.81-8.36,10.28-21.18,15.76-33.74,20a283,283,0,0,1-95,14.47C56.63,343.89,41.1,342.42,26.7,347.07Z"
            />
            <path
                class="cls-2"
                d="M1121.63,370a69.65,69.65,0,0,1-53.15-29.23c-9.73,7.15-23.41,4.4-34.68.06-10.55-4.06-21-9.54-27.95-18.47s-9.52-22-3.69-31.69a20.23,20.23,0,0,0-6.5,5.08c-16.7,18-21.59,47.24-8.26,67.84s45.51,27.3,63.91,11.07c1.93,11.38,13,18.75,23.5,23.46,16.38,7.33,34.36,11.69,52.26,10.39s35.67-8.63,47.78-21.87c17.91-19.6,20.54-51.51,6.07-73.77,7.56,11.63-.39,31.84-9.68,39.79C1157.87,364.07,1139.16,370.73,1121.63,370Z"
            />
            <path
                class="cls-2"
                d="M706.55,330.44c-3.34,19.05-16.24,35.58-32.41,46.2-15.09,9.91-36.93,14.43-50.16,2.14-5.07,11.1-16.62,18.37-28.66,20.39s-24.45-.61-35.78-5.16C546.73,388.86,534.62,381,527,369.44s-10.06-27-3.87-39.35c-2,9,6.25,16.81,14.18,21.49,11.12,6.56,24.06,11.39,36.78,9.2s24.5-13.35,23.7-26.23c2.94,8.14,10.12,14.25,18.16,17.43,20.3,8,45.53-3,55.1-22.6,9.88-20.24,3.1-43.84-11.64-59.61,10.26,4.28,25.23,8.09,33.73,15.49C705.11,295.7,709.17,315.44,706.55,330.44Z"
            />
            <path
                class="cls-2"
                d="M879.38,406c-7.3-8.53-10.39-22.84-2-30.26-9.69,4.8-22.44-.28-27.81-9.66s-4-21.64,1.58-30.89,14.9-15.78,24.82-20.09c-22.56,3.43-42.24,21.31-47.81,43.43a26,26,0,0,0-.77,11.25c2.52,12.85,18,17.83,30.84,20.09-2.52,12,2.52,24.79,11.18,33.47s20.5,13.62,32.53,16c4.58.9,9.33,1.45,13.9.46,9.77-2.1,16.64-10.61,22.68-18.57,6.38-8.42,12.82-20.35,6.27-28.63,9,11.45-14.2,25.93-21.71,27.31C907.12,422.81,890.26,418.69,879.38,406Z"
            />
        </g>
    </g>
</svg>
