<svg width="1378" height="817" viewBox="0 0 1378 817" fill="none" xmlns="http://www.w3.org/2000/svg">
    <g clip-path="url(#clip0)">
        <path d="M1378 0H0V817H1378V0Z" fill="white" />
        <path
            d="M679.813 831.978C836.251 831.978 963.069 719.195 963.069 580.07C963.069 440.945 836.251 328.162 679.813 328.162C523.376 328.162 396.558 440.945 396.558 580.07C396.558 719.195 523.376 831.978 679.813 831.978Z"
            fill="#E1F7DD"
        />
        <path d="M629.804 176.953C678.85 176.953 718.609 141.594 718.609 97.9767C718.609 54.3591 678.85 19 629.804 19C580.759 19 541 54.3591 541 97.9767C541 141.594 580.759 176.953 629.804 176.953Z" fill="#E1F7DD" />
        <path
            d="M131.676 938.188C221.31 938.188 293.973 873.567 293.973 793.852C293.973 714.137 221.31 649.515 131.676 649.515C42.041 649.515 -30.6222 714.137 -30.6222 793.852C-30.6222 873.567 42.041 938.188 131.676 938.188Z"
            fill="#E1F7DD"
        />
        <path d="M1320.92 590.14C1427.47 590.14 1513.84 513.326 1513.84 418.57C1513.84 323.815 1427.47 247 1320.92 247C1214.37 247 1128 323.815 1128 418.57C1128 513.326 1214.37 590.14 1320.92 590.14Z" fill="#E1F7DD" />
        <path
            d="M-54.6111 359.417C51.0901 359.417 136.778 283.212 136.778 189.208C136.778 95.2049 51.0901 19 -54.6111 19C-160.312 19 -246 95.2049 -246 189.208C-246 283.212 -160.312 359.417 -54.6111 359.417Z"
            fill="#E1F7DD"
        />
    </g>
    <defs>
        <clipPath id="clip0">
            <rect width="1378" height="817" fill="white" />
        </clipPath>
    </defs>
</svg>
