<svg width="1378" height="89" viewBox="0 0 1378 89" fill="none" xmlns="http://www.w3.org/2000/svg">
<path d="M0 45.641L32.9189 46.7821C65.8378 47.9231 131.676 50.2051 197.207 50.2051C262.892 50.2051 328.117 47.9231 393.802 39.2513C459.333 30.3513 525.171 15.2897 590.703 10.7256C656.387 6.16154 721.613 12.0949 787.297 20.9949C852.829 29.6667 918.667 41.0769 984.198 46.7821C1049.88 52.4872 1115.11 52.4872 1180.79 43.8154C1246.32 34.9154 1312.16 17.5718 1345.08 8.6718L1378 0V89H1345.08C1312.16 89 1246.32 89 1180.79 89C1115.11 89 1049.88 89 984.198 89C918.667 89 852.829 89 787.297 89C721.613 89 656.387 89 590.703 89C525.171 89 459.333 89 393.802 89C328.117 89 262.892 89 197.207 89C131.676 89 65.8378 89 32.9189 89H0V45.641Z" fill="white"/>
</svg>
