<svg id="visual" viewBox="0 0 900 50" width="900" height="50" xmlns="http://www.w3.org/2000/svg" xmlns:xlink="http://www.w3.org/1999/xlink" version="1.1">
    <path
        d="M0 27L11.5 24.7C23 22.3 46 17.7 69 16C92 14.3 115 15.7 138.2 19.3C161.3 23 184.7 29 207.8 32C231 35 254 35 277 31C300 27 323 19 346 18.7C369 18.3 392 25.7 415.2 29C438.3 32.3 461.7 31.7 484.8 29.8C508 28 531 25 554 23.2C577 21.3 600 20.7 623 22.7C646 24.7 669 29.3 692.2 31.5C715.3 33.7 738.7 33.3 761.8 31.8C785 30.3 808 27.7 831 27.8C854 28 877 31 888.5 32.5L900 34L900 51L888.5 51C877 51 854 51 831 51C808 51 785 51 761.8 51C738.7 51 715.3 51 692.2 51C669 51 646 51 623 51C600 51 577 51 554 51C531 51 508 51 484.8 51C461.7 51 438.3 51 415.2 51C392 51 369 51 346 51C323 51 300 51 277 51C254 51 231 51 207.8 51C184.7 51 161.3 51 138.2 51C115 51 92 51 69 51C46 51 23 51 11.5 51L0 51Z"
        fill="#d2f8d2"
        stroke-linecap="round"
        stroke-linejoin="miter"
    ></path>
</svg>
