<?xml version="1.0" standalone="no"?><svg xmlns="http://www.w3.org/2000/svg" viewBox="0 0 1440 320"><path fill="#e7008a" fill-opacity="1" d="M0,224L24,224C48,224,96,224,144,197.3C192,171,240,117,288,112C336,107,384,149,432,165.3C480,181,528,171,576,154.7C624,139,672,117,720,122.7C768,128,816,160,864,154.7C912,149,960,107,1008,80C1056,53,1104,43,1152,69.3C1200,96,1248,160,1296,181.3C1344,203,1392,181,1416,170.7L1440,160L1440,0L1416,0C1392,0,1344,0,1296,0C1248,0,1200,0,1152,0C1104,0,1056,0,1008,0C960,0,912,0,864,0C816,0,768,0,720,0C672,0,624,0,576,0C528,0,480,0,432,0C384,0,336,0,288,0C240,0,192,0,144,0C96,0,48,0,24,0L0,0Z"></path></svg>